<svg width="16" height="16" viewBox="0 0 16 16" fill="none" xmlns="http://www.w3.org/2000/svg">
<path d="M15.66 8.18002C15.66 7.65335 15.6133 7.15335 15.5333 6.66669H8V9.67336H12.3133C12.12 10.66 11.5533 11.4934 10.7133 12.06V14.06H13.2867C14.7933 12.6667 15.66 10.6134 15.66 8.18002Z" fill="#4285F4"/>
<path d="M7.99986 16C10.1599 16 11.9665 15.28 13.2865 14.06L10.7132 12.06C9.9932 12.54 9.07986 12.8333 7.99986 12.8333C5.9132 12.8333 4.14653 11.4267 3.5132 9.52667H0.859863V11.5867C2.1732 14.2 4.8732 16 7.99986 16Z" fill="#34A853"/>
<path d="M3.51333 9.52666C3.34667 9.04666 3.26 8.53333 3.26 7.99999C3.26 7.46666 3.35333 6.95333 3.51333 6.47333V4.41333H0.859999C0.313333 5.49333 0 6.70666 0 7.99999C0 9.29333 0.313333 10.5067 0.859999 11.5867L3.51333 9.52666Z" fill="#FBBC05"/>
<path d="M7.99986 3.16667C9.17986 3.16667 10.2332 3.57334 11.0665 4.36667L13.3465 2.08667C11.9665 0.793334 10.1599 0 7.99986 0C4.8732 0 2.1732 1.8 0.859863 4.41334L3.5132 6.47334C4.14653 4.57334 5.9132 3.16667 7.99986 3.16667Z" fill="#EA4335"/>
</svg>
